<svg height="511pt" viewBox="-107 1 511 511.999" width="511pt" xmlns="http://www.w3.org/2000/svg"><path d="m148.785156 99.773438c27.507813 0 49.886719-22.378907 49.886719-49.886719 0-27.507813-22.378906-49.886719-49.886719-49.886719-27.507812 0-49.886718 22.378906-49.886718 49.886719 0 27.507812 22.378906 49.886719 49.886718 49.886719zm0-84.746094c19.222656 0 34.859375 15.636718 34.859375 34.859375 0 19.222656-15.636719 34.859375-34.859375 34.859375s-34.859375-15.636719-34.859375-34.859375c0-19.222657 15.640625-34.859375 34.859375-34.859375zm0 0"/><path d="m239.015625 300.921875c-1.035156-4.019531-5.132813-6.441406-9.148437-5.40625-4.019532 1.035156-6.4375 5.128906-5.402344 9.148437l9.917968 38.566407h-36.175781c-4.152343 0-7.515625 3.363281-7.515625 7.511719v135.578124c0 5.875-4.777344 10.652344-10.648437 10.652344-5.875 0-10.652344-4.777344-10.652344-10.652344v-135.578124c0-4.148438-3.363281-7.511719-7.515625-7.511719h-26.179688c-4.148437 0-7.511718 3.363281-7.511718 7.511719v54.953124c0 4.152344 3.363281 7.515626 7.511718 7.515626 4.152344 0 7.515626-3.363282 7.515626-7.515626v-47.441406h11.152343v128.066406c0 14.160157 11.519531 25.679688 25.679688 25.679688 14.15625 0 25.675781-11.519531 25.675781-25.679688v-128.0625h38.355469c4.828125 0 8.480469-4.703124 7.277343-9.386718zm0 0"/><path d="m296.152344 286.882812-36.921875-132.554687c-.074219-.261719-.160157-.519531-.261719-.769531-8.207031-26.582032-33.242188-45.089844-61.121094-45.089844h-98.121094c-27.878906 0-52.910156 18.5-61.117187 45.082031-.101563.253907-.191406.515625-.265625.777344l-6.980469 25.066406c-1.113281 4 1.222657 8.140625 5.21875 9.253907 4.003907 1.117187 8.140625-1.222657 9.253907-5.21875l6.808593-24.433594c.0625-.164063.117188-.332032.167969-.503906 6.113281-20.605469 25.40625-34.996094 46.914062-34.996094h98.121094c21.507813 0 40.796875 14.390625 46.914063 34.996094.050781.171874.105469.335937.167969.5l36.746093 131.921874c1.578125 5.660157-1.742187 11.542969-7.402343 13.117188-5.597657 1.5625-11.5625-1.8125-13.117188-7.402344l-33.113281-118.867187c-2.105469-7.558594-9.054688-12.835938-16.898438-12.835938-11.285156 0-19.804687 10.96875-16.992187 21.914063l22.835937 88.761718c1.03125 4.019532 5.128907 6.4375 9.148438 5.40625 4.015625-1.035156 6.4375-5.128906 5.402343-9.148437l-22.832031-88.761719c-.804687-3.125 3.996094-4.410156 4.859375-1.304687l33.113282 118.871093c3.75 13.472657 18.125 21.605469 31.625 17.847657 13.640624-3.800781 21.644531-17.992188 17.847656-31.628907zm0 0"/><path d="m135.695312 428.238281c-4.148437 0-7.511718 3.363281-7.511718 7.511719v50.570312c0 5.972657-5.09375 10.84375-11.046875 10.644532-5.65625-.203125-10.253907-5.171875-10.253907-11.078125v-135.144531c0-4.148438-3.363281-7.511719-7.515624-7.511719h-36.179688l40.234375-156.390625c2.8125-10.945313-5.707031-21.914063-16.992187-21.914063-7.84375 0-14.792969 5.277344-16.902344 12.835938l-33.109375 118.871093c-1.558594 5.589844-7.519531 8.960938-13.121094 7.402344-5.589844-1.558594-8.960937-7.519531-7.402344-13.117187l21.863281-78.484375c1.109376-3.996094-1.226562-8.140625-5.222656-9.253906-3.996094-1.113282-8.140625 1.222656-9.253906 5.222656l-21.863281 78.484375c-3.761719 13.496093 4.375 27.871093 17.847656 31.625 13.496094 3.757812 27.875-4.371094 31.625-17.847657l33.113281-118.871093c.863282-3.105469 5.667969-1.820313 4.863282 1.300781l-42.648438 165.777344c-1.203125 4.683594 2.449219 9.382812 7.277344 9.382812h38.355468v127.632813c0 14.136719 10.871094 25.601562 24.75 26.09375 10.90625.390625 21.15625-6.394531 24.988282-16.636719 1.078125-2.878906 1.621094-5.949219 1.621094-9.023438v-50.570312c0-4.148438-3.363282-7.511719-7.515626-7.511719zm0 0"/></svg>